<svg version="1.1" id="Layer_1" xmlns="http://www.w3.org/2000/svg" x="0" y="0" width="387.8" height="138.9" xml:space="preserve"><style>.st2{fill:#a6d059}.st3{fill:#63c29d}</style><path d="M7.3 95.2V83.4H4v27.9h3.3V98.4h15.5v12.9h3.3V83.4h-3.3V96H7.3zm54.3-10.4C59.4 83.6 57 83 54.4 83c-2.6 0-5 .6-7.2 1.8-2.2 1.2-3.9 2.9-5.2 5.1-1.3 2.2-1.9 4.6-1.9 7.4 0 2.7.6 5.2 1.9 7.4 1.3 2.2 3 3.9 5.2 5.1 2.2 1.2 4.6 1.8 7.2 1.8 2.6 0 5.1-.6 7.2-1.8 2.2-1.2 3.9-2.9 5.2-5.1 1.3-2.2 1.9-4.7 1.9-7.4s-.6-5.2-1.9-7.4c-1.3-2.2-3-3.9-5.2-5.1zm2.3 18.6c-.9 1.8-2.2 3.2-3.9 4.1-1.6 1-3.5 1.4-5.6 1.4-2.1 0-4-.5-5.6-1.4-1.7-1-3-2.4-3.9-4.1-.9-1.8-1.4-3.8-1.4-6.1s.5-4.4 1.4-6.1c.9-1.8 2.2-3.2 3.9-4.1 1.6-.9 3.5-1.4 5.6-1.4s4 .5 5.6 1.4c1.7 1 3 2.3 3.9 4.1.9 1.8 1.4 3.8 1.4 6.1s-.5 4.3-1.4 6.1zm22.1 4.8V83.4h-3.3v27.9h13.2V109H86zm40-23.1c-2.2-1.1-4.9-1.7-7.9-1.7h-8.9v28h8.9c3 0 5.7-.6 7.9-1.7s3.9-2.7 5.2-4.8c1.2-2.1 1.8-4.6 1.8-7.4s-.6-5.4-1.8-7.5c-1.2-2.2-3-3.8-5.2-4.9zm.6 20.8c-2 2-4.9 3-8.5 3h-5.6V85.7h5.6c3.7 0 6.5 1.1 8.5 3.1 2 2.1 3 5 3 8.6 0 3.6-1 6.5-3 8.5zm20.5-22.5h3.3v28h-3.3zm18.8-.1v28h3.3V87.4l1.5 2.2 14.3 21.7h3.6v-28h-3.2v23.9l-1.5-2.2-14.3-21.7zm61.3 16.6c-.4 2.7-1.5 4.9-3.3 6.5-1.8 1.6-4.1 2.4-7 2.4-2.1 0-4-.5-5.6-1.4-1.7-1-3-2.3-3.9-4.1-.9-1.7-1.4-3.8-1.4-6 0-2.3.5-4.3 1.4-6 .9-1.7 2.2-3.1 3.9-4.1 1.6-.9 3.5-1.4 5.6-1.4 1.9 0 3.6.4 5.1 1.2 1.4.8 2.5 1.8 3.3 3.2h4.1c-1-2.1-2.6-3.9-4.5-5.1-2.3-1.5-5-2.2-8-2.2-2.6 0-5 .6-7.2 1.8-2.2 1.2-3.9 2.9-5.2 5.1-1.3 2.2-1.9 4.6-1.9 7.4 0 2.7.6 5.2 1.9 7.4 1.3 2.2 3 3.9 5.2 5.1 2.2 1.2 4.6 1.8 7.2 1.8 2.4 0 4.7-.5 6.7-1.6s3.6-2.6 4.9-4.4c1.2-1.8 2-3.8 2.3-5.9v-2.9h-14.7V99h11.2l-.1.9zm32-2.4c-1.2-.5-2.8-1-4.7-1.6-1.5-.4-2.7-.8-3.6-1.1-1-.4-1.8-.9-2.4-1.6-.7-.7-1-1.7-1-2.8 0-1.6.5-2.8 1.6-3.7 1-.8 2.3-1.2 3.9-1.2 1.7 0 3.1.4 4.2 1.3.9.7 1.5 1.6 1.7 2.6h3.8c-.3-1.9-1.2-3.3-2.6-4.5-1.7-1.3-3.9-2-6.5-2-1.9 0-3.6.3-5 1-1.4.6-2.5 1.5-3.2 2.6-.8 1.1-1.1 2.5-1.1 4 0 1.7.4 3 1.1 3.9.8 1 1.7 1.7 2.8 2.2 1.1.5 2.7 1 4.6 1.5 1.6.4 2.8.8 3.7 1.1 1 .4 1.8.9 2.5 1.6.7.8 1.1 1.8 1.1 3 0 1.5-.6 2.8-1.7 3.7-1.1.9-2.6 1.4-4.4 1.4-1.8 0-3.3-.5-4.3-1.4-.9-.8-1.4-1.8-1.7-2.9h-3.7c.1 1.2.5 2.3 1.2 3.2.8 1.2 2 2.1 3.4 2.7 1.5.6 3.2 1 5 1 2 0 3.7-.4 5.1-1.1 1.4-.7 2.5-1.7 3.2-2.9.7-1.2 1.1-2.5 1.1-3.8 0-1.7-.4-3-1.1-4-1-1-1.9-1.7-3-2.2zM29.4 47.8l-3.1-.6 3-1c2.2-.7 4-1.9 5.4-3.6 1.3-1.7 2-3.8 2-6.3 0-2.1-.5-4.1-1.6-5.7-1.1-1.7-2.7-3-4.8-4-2.2-1-4.8-1.5-7.8-1.5H4V70h19.2c3 0 5.6-.5 7.8-1.5s3.8-2.4 4.9-4.1c1.1-1.7 1.7-3.8 1.7-6.1 0-2.5-.8-4.8-2.3-6.8-1.5-2.1-3.5-3.2-5.9-3.7zm-17.7-4.2V31.2H21c2.4 0 4.3.6 5.6 1.7 1.4 1.2 2.1 2.8 2.1 4.9 0 2.1-.7 3.7-2.1 4.9-1.3 1.1-3.2 1.7-5.6 1.7h-9.3v-.8zm16 18.6c-1.4 1.2-3.4 1.8-5.8 1.8H11.7V49.9h10c2.4 0 4.4.6 5.9 1.9 1.5 1.3 2.3 3.1 2.3 5.3 0 2.2-.8 3.9-2.2 5.1zm49-9.8l-.5-.9 1-.3c3.3-.9 5.8-2.5 7.5-4.8 1.7-2.3 2.5-4.9 2.5-7.8 0-2.5-.6-4.8-1.8-6.8-1.2-2-3-3.6-5.3-4.8-2.4-1.2-5.4-1.8-8.8-1.8H54.7V70h7.7V51.9H68l.2.4 10 17.6h8.9L76.7 52.4zm-13.5-5.8h-.8V31.4H71c2.7 0 4.8.7 6.2 2 1.4 1.3 2.1 3.2 2.1 5.5 0 2.4-.7 4.3-2.1 5.6-1.4 1.4-3.5 2.1-6.2 2.1h-7.8zm49.7 16.6V50.1h15.6v-5.7h-15.6V31.2h17.6v-6h-25.3V70h25.3v-6h-17.6zm43.2 0V50.1h15.6v-5.7h-15.6V31.2h17.6v-6h-25.3V70h25.3v-6h-17.6zm43.6-.7l20.7-31.1v-6.1h-30v6.2h21.4l-.8 1.2-20.6 31.2V70h30v-6.3h-21.5zM245.6 32v-.8h17.6v-6h-25.3V70h25.3v-6h-17.6V50.1h15.6v-5.7h-15.6v-.8z" fill="#004b6e"/><path d="M338 68.4c6.7 11.8 11.5 24.4 14.2 37.6 12.5-10.5 22.8-23.2 30.4-37.6-7.7-14.5-17.9-27.2-30.4-37.7-2.7 13.3-7.5 25.9-14.2 37.7z" fill="#28a5b1"/><path class="st2" d="M292.8 115.3c-2.6 6.8-5.8 13.3-9.5 19.5 8.8-.8 17.5-2.5 25.7-5.1.9-6.1 1.4-12.3 1.4-18.5 0-2.7-.1-5.6-.3-8.7-5.5 4.8-11.3 9-17.3 12.8z"/><path class="st3" d="M314.7 98.3c.4 4.3.6 8.6.6 12.9 0 5.5-.4 11.1-1.1 16.7 12.1-4.3 23.4-10.5 33.6-18.4-2.4-12.7-6.7-24.9-12.8-36.2-5.6 9.1-12.4 17.5-20.3 25z"/><path d="M332.3 68.4c-5.2-8.6-11.4-16.7-18.4-23.8-1.2 8.1-3.2 16.1-5.8 23.8 2.7 7.7 4.6 15.7 5.8 23.8 7.1-7.1 13.3-15.1 18.4-23.8z" fill="#67c18c"/><path class="st2" d="M305.3 75.7c-1.5 3.6-3.2 7.2-5 10.5-1 7.2-2.6 14.4-4.8 21.4 5-3.4 9.7-7.2 14.1-11.2-.9-7-2.3-14-4.3-20.7zm0-14.6c2-6.7 3.4-13.7 4.3-20.8-4.4-4-9.1-7.8-14.1-11.2 2.2 7 3.8 14.2 4.8 21.4 1.8 3.5 3.5 7 5 10.6zm4.8-26.8c.2-3.1.3-5.9.3-8.7 0-6.2-.5-12.4-1.4-18.5-8.3-2.6-16.9-4.3-25.7-5.1 3.7 6.2 6.8 12.7 9.5 19.5 6.1 3.8 11.9 8.1 17.3 12.8z"/><path class="st3" d="M314.7 38.5c7.9 7.5 14.7 15.9 20.4 25 6.1-11.3 10.4-23.5 12.8-36.2-10.2-7.8-21.6-14-33.6-18.4.7 5.6 1.1 11.2 1.1 16.7-.1 4.3-.3 8.6-.7 12.9z"/></svg>